<svg id="Слой_1" data-name="Слой 1" xmlns="http://www.w3.org/2000/svg" viewBox="0 0 595.28 841.89"><path d="M122.72,245.19C104.29,251.77,53,280.3,54.35,325.73c5.49,190.18-44.54,111.32,17.84,207.9,56.14,86.92,55.66,106,113.69,103.58S247.47,687,324.45,655,458.28,628.45,495,540.45s17.77-82.08,41.45-124.71S532.9,335.2,514,321s-30.79-58-32-72.25S431,191.89,397.88,197.82s-15.39-35.54-58-42.64a435.84,435.84,0,0,0-53.22-5.61h0L249.12,148a74.93,74.93,0,0,0-27.08,3.8l-.14,0C180.49,165.94,79.48,168.33,97.28,266.65"/></svg>