<svg xmlns="http://www.w3.org/2000/svg" width="44" height="28" viewBox="0 0 44 28" fill="none">
  <path d="M29.9882 10.312C30.5059 9.85369 31.0434 9.42532 31.6658 9.10942C32.9978 8.43305 34.4229 8.23053 35.8942 8.28138C37.0313 8.32057 38.1378 8.53207 39.1794 9.00382C41.1966 9.91741 42.3911 11.5238 43.0214 13.5924C43.3604 14.7052 43.4255 15.8542 43.4516 17.0072C43.4486 17.7825 43.4384 18.5579 43.4471 19.3333C43.4495 19.5418 43.4054 19.6217 43.1769 19.6172C42.2593 19.5989 41.3396 19.6366 40.4243 19.5855C39.1623 19.5152 38.2837 18.7835 37.9021 17.5737C37.8916 17.5405 37.8769 17.5088 37.864 17.4765C37.7769 17.02 37.8117 16.5551 37.7667 16.0954C37.6553 14.9553 37.1914 14.0737 36.032 13.6848C35.7648 13.5951 35.4894 13.5425 35.2096 13.5269C34.3917 13.4817 33.6218 13.611 32.9801 14.1745C32.4405 14.5757 32.2676 15.1656 32.1502 15.7825C32.0898 16.1004 32.0781 16.4232 32.0787 16.7469C32.0802 17.6108 32.0754 18.4751 32.0826 19.339C32.0841 19.5281 32.052 19.6187 31.8271 19.6175C30.1108 19.6082 28.3944 19.6094 26.6778 19.6166C26.4763 19.6175 26.4277 19.5484 26.428 19.3587C26.4304 18.3204 26.4445 17.2812 26.4091 16.2437C26.3634 14.9003 25.7467 14.022 24.6372 13.6714C23.9255 13.4464 23.2034 13.4512 22.4927 13.6813C21.6264 13.9619 21.0718 14.541 20.855 15.4325C20.7682 15.7893 20.7166 16.1507 20.7097 16.5163C20.6986 17.1008 20.7073 17.6856 20.6956 18.2701C20.6082 22.6505 17.9577 26.3378 13.3486 27.4219C11.1648 27.9355 8.97822 27.8503 6.85923 27.083C3.6869 25.9342 1.85076 23.6099 1.09018 20.3857C0.89531 19.5595 0.826849 18.7162 0.827149 17.8669C0.828651 12.2463 0.828351 6.62532 0.828651 1.00467C0.828651 0.677409 0.828951 0.677409 1.15294 0.70164C3.83943 0.901469 5.89116 2.72326 6.377 5.34438C6.43735 5.67074 6.45867 6.0013 6.45807 6.33425C6.45537 7.67831 6.45657 9.02237 6.45747 10.3664C6.45747 10.4586 6.46558 10.5504 6.46948 10.6351C6.54935 10.6512 6.56797 10.6042 6.59289 10.5728C7.69187 9.19348 9.16168 8.50335 10.8861 8.32177C12.6202 8.13929 14.2644 8.47882 15.8195 9.2566C16.0883 9.39121 16.085 9.39421 15.8853 9.62066C14.8196 10.8319 14.1683 12.2481 13.8089 13.8069C13.7606 14.0172 13.7384 14.2332 13.7011 14.4462C13.6837 14.5455 13.6612 14.6191 13.5393 14.5162C12.9327 14.0019 12.2361 13.7106 11.4425 13.5897C10.1697 13.3962 9.00674 13.611 7.99964 14.4249C7.11536 15.1396 6.63733 16.0891 6.49891 17.2178C6.39081 18.0993 6.44155 18.9594 6.74242 19.8006C7.13998 20.9119 7.88074 21.7307 8.97581 22.145C10.6207 22.7672 12.2019 22.626 13.5879 21.4587C14.3182 20.8437 14.7494 20.0363 14.9124 19.0889C14.9995 18.5831 15.0328 18.0769 15.0322 17.5645C15.031 16.8755 15.0142 16.1827 15.0797 15.4989C15.1556 14.7055 15.3112 13.9224 15.5976 13.1673C15.9531 12.2301 16.4011 11.3518 17.0791 10.6036C18.1009 9.47587 19.3855 8.81386 20.864 8.50515C22.5572 8.15156 24.2375 8.1722 25.8896 8.72472C27.1852 9.15788 28.2599 9.91292 29.0934 10.9949C29.2265 11.1675 29.2934 11.1553 29.4159 10.9922C29.5946 10.7565 29.7967 10.5381 29.9882 10.312Z" fill="white"/>
</svg>