<svg width="107" height="60" viewBox="0 0 107 60" fill="none" xmlns="http://www.w3.org/2000/svg">
<g id="BriefMe 1">
<g id="Group">
<path id="Vector" d="M72.1225 22.865C73.0833 22.0139 74.0808 21.2183 75.2361 20.6316C77.7082 19.3755 80.3531 18.9994 83.0839 19.0939C85.1943 19.1666 87.248 19.5594 89.1812 20.4355C92.9251 22.1322 95.142 25.1155 96.3117 28.9572C96.9409 31.0239 97.0619 33.1577 97.1103 35.2989C97.1048 36.7389 97.0858 38.1789 97.102 39.6189C97.1064 40.0061 97.0245 40.1544 96.6004 40.1461C94.8973 40.1122 93.1904 40.1822 91.4917 40.0872C89.1494 39.9566 87.5188 38.5978 86.8105 36.3511C86.791 36.2894 86.7637 36.2305 86.7397 36.1705C86.5781 35.3228 86.6427 34.4594 86.5591 33.6055C86.3524 31.4883 85.4914 29.8511 83.3397 29.1289C82.8437 28.9622 82.3326 28.8644 81.8132 28.8355C80.2952 28.7516 78.8663 28.9916 77.6754 30.0383C76.6739 30.7833 76.3529 31.8789 76.135 33.0244C76.023 33.615 76.0013 34.2144 76.0024 34.8155C76.0051 36.42 75.9962 38.025 76.0096 39.6294C76.0124 39.9805 75.9528 40.1489 75.5354 40.1466C72.3499 40.1294 69.1644 40.1316 65.9784 40.145C65.6044 40.1466 65.5141 40.0183 65.5147 39.6661C65.5191 37.7378 65.5453 35.8077 65.4796 33.8811C65.3949 31.3861 64.2502 29.755 62.191 29.1039C60.8702 28.6861 59.5299 28.695 58.2108 29.1222C56.603 29.6433 55.5737 30.7189 55.1714 32.3744C55.0103 33.0372 54.9144 33.7083 54.9016 34.3872C54.881 35.4728 54.8972 36.5589 54.8754 37.6444C54.7133 45.7794 49.7941 52.6272 41.2396 54.6405C37.1864 55.5944 33.1282 55.4361 29.1954 54.0111C23.3076 51.8778 19.8998 47.5611 18.4882 41.5733C18.1265 40.0389 17.9994 38.4727 18 36.8955C18.0028 26.4572 18.0022 16.0183 18.0028 5.57997C18.0028 4.97219 18.0033 4.97219 18.6047 5.01719C23.5908 5.3883 27.3987 8.77164 28.3004 13.6394C28.4124 14.2455 28.452 14.8594 28.4509 15.4777C28.4459 17.9739 28.4481 20.47 28.4498 22.9661C28.4498 23.1372 28.4648 23.3078 28.4721 23.465C28.6203 23.495 28.6549 23.4077 28.7011 23.3494C30.7408 20.7877 33.4687 19.5061 36.6693 19.1689C39.8876 18.83 42.9394 19.4605 45.8256 20.905C46.3244 21.155 46.3182 21.1605 45.9476 21.5811C43.9698 23.8305 42.761 26.4605 42.094 29.3555C42.0042 29.7461 41.963 30.1472 41.8939 30.5427C41.8616 30.7272 41.8198 30.8639 41.5935 30.6727C40.4678 29.7177 39.1749 29.1766 37.7019 28.9522C35.3396 28.5928 33.1812 28.9916 31.312 30.5033C29.6708 31.8305 28.7836 33.5939 28.5267 35.69C28.3261 37.3272 28.4202 38.9244 28.9786 40.4866C29.7165 42.5505 31.0913 44.0711 33.1238 44.8405C36.1766 45.9961 39.1113 45.7339 41.6838 43.5661C43.0391 42.4239 43.8394 40.9244 44.142 39.165C44.3036 38.2255 44.3655 37.2855 44.3644 36.3339C44.3621 35.0544 44.3309 33.7677 44.4524 32.4978C44.5934 31.0244 44.8821 29.57 45.4137 28.1677C46.0736 26.4272 46.9051 24.7961 48.1634 23.4066C50.0599 21.3122 52.444 20.0827 55.1881 19.5094C58.3306 18.8527 61.4493 18.8911 64.5155 19.9172C66.9202 20.7216 68.9147 22.1239 70.4618 24.1333C70.7087 24.4539 70.8329 24.4311 71.0603 24.1283C71.3919 23.6905 71.767 23.285 72.1225 22.865Z" fill="white"/>
</g>
</g>
</svg>
