<svg width="60" height="60" viewBox="0 0 60 60" fill="none" xmlns="http://www.w3.org/2000/svg">
<g id="Frame">
<path id="Vector" d="M10.9078 53.0885V50.0015C10.9078 48.8179 10.1874 48.0464 8.95244 48.0464C8.3351 48.0464 7.66619 48.2521 7.20307 48.921C6.84307 48.355 6.32861 48.0464 5.55682 48.0464C5.04213 48.0464 4.52791 48.2006 4.11611 48.7666V48.1492H3.03564V53.0885H4.11611V50.3615C4.11611 49.4871 4.57924 49.0753 5.29971 49.0753C6.01971 49.0753 6.38018 49.5384 6.38018 50.3615V53.0885H7.46064V50.3615C7.46064 49.4871 7.97486 49.0753 8.64377 49.0753C9.36424 49.0753 9.72424 49.5384 9.72424 50.3615V53.0885H10.9078ZM26.9088 48.1492H25.1597V46.6572H24.0792V48.1492H23.1017V49.1266H24.079V51.3907C24.079 52.5227 24.5421 53.1914 25.7771 53.1914C26.2402 53.1914 26.7544 53.0371 27.1149 52.8314L26.806 51.9051C26.4973 52.1109 26.1373 52.1624 25.8799 52.1624C25.3655 52.1624 25.1597 51.8538 25.1597 51.3391V49.1266H26.9088V48.1492ZM36.0673 48.0461C35.4499 48.0461 35.0384 48.355 34.781 48.7666V48.1492H33.7006V53.0885H34.781V50.3102C34.781 49.4871 35.141 49.0239 35.8099 49.0239C36.0157 49.0239 36.2731 49.0755 36.4789 49.1268L36.7875 48.0979C36.5817 48.0464 36.2731 48.0464 36.0673 48.0464V48.0461ZM22.227 48.5608C21.7123 48.2006 20.9921 48.0464 20.2203 48.0464C18.9856 48.0464 18.1624 48.6637 18.1624 49.6413C18.1624 50.4646 18.7798 50.9275 19.8603 51.082L20.3747 51.1335C20.9407 51.2362 21.2494 51.3907 21.2494 51.648C21.2494 52.008 20.8378 52.2653 20.1174 52.2653C19.3971 52.2653 18.8311 52.008 18.4709 51.7509L17.9564 52.574C18.5224 52.9856 19.2942 53.1914 20.0658 53.1914C21.5065 53.1914 22.3299 52.5227 22.3299 51.5964C22.3299 50.7217 21.661 50.2586 20.6318 50.1044L20.1174 50.0528C19.6542 50.0013 19.2942 49.8986 19.2942 49.59C19.2942 49.2297 19.6542 49.0239 20.2203 49.0239C20.8378 49.0239 21.4552 49.281 21.7638 49.4355L22.227 48.5608ZM50.9367 48.0464C50.3192 48.0464 49.9076 48.355 49.6503 48.7666V48.1492H48.5698V53.0885H49.6503V50.3102C49.6503 49.4871 50.0105 49.0239 50.6792 49.0239C50.8852 49.0239 51.1425 49.0755 51.3483 49.1268L51.657 48.0979C51.4512 48.0464 51.1425 48.0464 50.9367 48.0464ZM37.1478 50.6189C37.1478 52.1109 38.1767 53.1914 39.7718 53.1914C40.4921 53.1914 41.0065 53.0371 41.521 52.6256L41.0065 51.7509C40.5949 52.0596 40.1834 52.2138 39.7203 52.2138C38.8456 52.2138 38.2282 51.5964 38.2282 50.6189C38.2282 49.6928 38.8456 49.0753 39.7203 49.0239C40.1834 49.0239 40.5949 49.1782 41.0065 49.4871L41.521 48.6124C41.0065 48.2006 40.4921 48.0464 39.7718 48.0464C38.1767 48.0464 37.1478 49.1268 37.1478 50.6189ZM47.1293 50.6189V48.1492H46.0489V48.7666C45.6886 48.3037 45.1742 48.0464 44.5053 48.0464C43.1161 48.0464 42.0356 49.1268 42.0356 50.6189C42.0356 52.1109 43.1161 53.1914 44.5053 53.1914C45.2255 53.1914 45.7402 52.9342 46.0489 52.4711V53.0885H47.1293V50.6189ZM43.1674 50.6189C43.1674 49.7442 43.7335 49.0239 44.6595 49.0239C45.5342 49.0239 46.1517 49.6928 46.1517 50.6189C46.1517 51.4935 45.5342 52.2138 44.6595 52.2138C43.7335 52.1622 43.1674 51.4935 43.1674 50.6189ZM30.2534 48.0464C28.8127 48.0464 27.7835 49.0753 27.7835 50.6189C27.7835 52.1625 28.8124 53.1914 30.3047 53.1914C31.0249 53.1914 31.7454 52.9856 32.3114 52.5227L31.7967 51.7509C31.3852 52.0596 30.8707 52.2653 30.3563 52.2653C29.6874 52.2653 29.0185 51.9567 28.864 51.0817H32.5172V50.6704C32.5688 49.0753 31.6428 48.0464 30.2534 48.0464ZM30.2534 48.9724C30.9221 48.9724 31.3854 49.3842 31.4881 50.156H28.9156C29.0185 49.4871 29.4816 48.9724 30.2534 48.9724ZM57.0593 50.6189V46.1941H55.9788V48.7666C55.6186 48.3037 55.1042 48.0464 54.4353 48.0464C53.0461 48.0464 51.9656 49.1268 51.9656 50.6189C51.9656 52.1109 53.0461 53.1914 54.4353 53.1914C55.1557 53.1914 55.6702 52.9342 55.9788 52.4711V53.0885H57.0593V50.6189ZM53.0977 50.6189C53.0977 49.7442 53.6635 49.0239 54.5897 49.0239C55.4644 49.0239 56.0817 49.6928 56.0817 50.6189C56.0817 51.4935 55.4644 52.2138 54.5897 52.2138C53.6635 52.1622 53.0977 51.4935 53.0977 50.6189ZM16.9788 50.6189V48.1492H15.8984V48.7666C15.5381 48.3037 15.0237 48.0464 14.3548 48.0464C12.9656 48.0464 11.8852 49.1268 11.8852 50.6189C11.8852 52.1109 12.9656 53.1914 14.3548 53.1914C15.0753 53.1914 15.5897 52.9342 15.8984 52.4711V53.0885H16.9788V50.6189ZM12.9656 50.6189C12.9656 49.7442 13.5317 49.0239 14.4577 49.0239C15.3324 49.0239 15.9499 49.6928 15.9499 50.6189C15.9499 51.4935 15.3324 52.2138 14.4577 52.2138C13.5317 52.1622 12.9656 51.4935 12.9656 50.6189Z" fill="white"/>
<path id="Vector_2" d="M21.8667 10.6414H38.0737V39.7627H21.8667V10.6414Z" fill="#FF5F00"/>
<path id="Vector_3" d="M22.8959 25.2021C22.8959 19.2853 25.6741 14.0372 29.9445 10.6413C26.8062 8.17172 22.8445 6.67969 18.5227 6.67969C8.28351 6.67969 0 14.9632 0 25.2021C0 35.4408 8.28351 43.7245 18.5224 43.7245C22.8443 43.7245 26.8059 42.2325 29.9445 39.7627C25.6741 36.4184 22.8959 31.1189 22.8959 25.2021Z" fill="#EB001B"/>
<path id="Vector_4" d="M59.9405 25.2021C59.9405 35.4408 51.657 43.7245 41.4181 43.7245C37.0962 43.7245 33.1346 42.2325 29.9961 39.7627C34.318 36.367 37.0449 31.1189 37.0449 25.2021C37.0449 19.2853 34.2664 14.0372 29.9961 10.6413C33.1344 8.17172 37.0962 6.67969 41.4181 6.67969C51.657 6.67969 59.9405 15.0148 59.9405 25.2021Z" fill="#F79E1B"/>
</g>
</svg>
